<mxfile host="app.diagrams.net" modified="2020-07-17T17:54:28.780Z" agent="5.0 (X11; CrOS x86_64 13020.87.0) AppleWebKit/537.36 (KHTML, like Gecko) Chrome/83.0.4103.119 Safari/537.36" etag="aImstpQExR-txFpppZob" version="13.4.6" type="github">
  <diagram id="3He4Hd02jmimO1BY7AzF" name="Page-1">
    <mxGraphModel dx="782" dy="698" grid="1" gridSize="10" guides="1" tooltips="1" connect="1" arrows="1" fold="1" page="1" pageScale="1" pageWidth="850" pageHeight="1100" math="0" shadow="0">
      <root>
        <mxCell id="0" />
        <mxCell id="1" parent="0" />
        <mxCell id="7oue5vu6Khn2l55E_7nm-1" value="" style="verticalLabelPosition=bottom;aspect=fixed;html=1;verticalAlign=top;strokeColor=none;align=center;outlineConnect=0;shape=mxgraph.citrix.role_load_testing_controller;" vertex="1" parent="1">
          <mxGeometry x="270" y="110" width="24" height="24" as="geometry" />
        </mxCell>
        <mxCell id="7oue5vu6Khn2l55E_7nm-2" value="" style="image;html=1;image=img/lib/clip_art/general/Battery_allstates_128x128.png" vertex="1" parent="1">
          <mxGeometry x="30" y="82" width="80" height="80" as="geometry" />
        </mxCell>
        <mxCell id="7oue5vu6Khn2l55E_7nm-3" value="" style="image;html=1;image=img/lib/clip_art/general/Battery_allstates_128x128.png" vertex="1" parent="1">
          <mxGeometry x="30" y="200" width="80" height="80" as="geometry" />
        </mxCell>
        <mxCell id="7oue5vu6Khn2l55E_7nm-4" value="" style="image;html=1;image=img/lib/clip_art/general/Battery_allstates_128x128.png" vertex="1" parent="1">
          <mxGeometry x="30" y="320" width="80" height="80" as="geometry" />
        </mxCell>
        <mxCell id="7oue5vu6Khn2l55E_7nm-5" value="" style="verticalLabelPosition=bottom;aspect=fixed;html=1;verticalAlign=top;strokeColor=none;align=center;outlineConnect=0;shape=mxgraph.citrix.role_load_testing_controller;" vertex="1" parent="1">
          <mxGeometry x="270" y="228" width="24" height="24" as="geometry" />
        </mxCell>
        <mxCell id="7oue5vu6Khn2l55E_7nm-6" value="" style="verticalLabelPosition=bottom;aspect=fixed;html=1;verticalAlign=top;strokeColor=none;align=center;outlineConnect=0;shape=mxgraph.citrix.role_load_testing_controller;" vertex="1" parent="1">
          <mxGeometry x="270" y="348" width="24" height="24" as="geometry" />
        </mxCell>
        <mxCell id="7oue5vu6Khn2l55E_7nm-7" value="" style="html=1;outlineConnect=0;fillColor=#CCCCCC;strokeColor=#6881B3;gradientColor=none;gradientDirection=north;strokeWidth=2;shape=mxgraph.networks.bus;gradientColor=none;gradientDirection=north;fontColor=#ffffff;perimeter=backbonePerimeter;backboneSize=20;" vertex="1" parent="1">
          <mxGeometry x="100" y="114" width="160" height="20" as="geometry" />
        </mxCell>
        <mxCell id="7oue5vu6Khn2l55E_7nm-8" value="" style="html=1;outlineConnect=0;fillColor=#CCCCCC;strokeColor=#6881B3;gradientColor=none;gradientDirection=north;strokeWidth=2;shape=mxgraph.networks.bus;gradientColor=none;gradientDirection=north;fontColor=#ffffff;perimeter=backbonePerimeter;backboneSize=20;" vertex="1" parent="1">
          <mxGeometry x="100" y="350" width="160" height="20" as="geometry" />
        </mxCell>
        <mxCell id="7oue5vu6Khn2l55E_7nm-9" value="" style="html=1;outlineConnect=0;fillColor=#CCCCCC;strokeColor=#6881B3;gradientColor=none;gradientDirection=north;strokeWidth=2;shape=mxgraph.networks.bus;gradientColor=none;gradientDirection=north;fontColor=#ffffff;perimeter=backbonePerimeter;backboneSize=20;" vertex="1" parent="1">
          <mxGeometry x="100" y="228" width="160" height="20" as="geometry" />
        </mxCell>
        <mxCell id="7oue5vu6Khn2l55E_7nm-22" value="" style="html=1;fillColor=#CCCCCC;strokeColor=#6881B3;gradientColor=none;gradientDirection=north;strokeWidth=2;shape=mxgraph.networks.bus;gradientColor=none;gradientDirection=north;fontColor=#ffffff;perimeter=backbonePerimeter;backboneSize=20;rotation=90;" vertex="1" parent="1">
          <mxGeometry x="310" y="232" width="320" height="20" as="geometry" />
        </mxCell>
        <mxCell id="7oue5vu6Khn2l55E_7nm-49" value="" style="strokeColor=#6881B3;edgeStyle=none;rounded=0;endArrow=none;html=1;strokeWidth=2;exitX=0.13;exitY=1;exitDx=0;exitDy=0;exitPerimeter=0;" edge="1" parent="1" source="7oue5vu6Khn2l55E_7nm-22">
          <mxGeometry relative="1" as="geometry">
            <mxPoint x="395" y="123.5" as="sourcePoint" />
            <mxPoint x="305" y="123.5" as="targetPoint" />
            <Array as="points">
              <mxPoint x="355" y="123.5" />
            </Array>
          </mxGeometry>
        </mxCell>
        <mxCell id="7oue5vu6Khn2l55E_7nm-54" value="" style="strokeColor=#6881B3;edgeStyle=none;rounded=0;endArrow=none;html=1;strokeWidth=2;exitX=0.498;exitY=1;exitDx=0;exitDy=0;exitPerimeter=0;" edge="1" parent="1" source="7oue5vu6Khn2l55E_7nm-22">
          <mxGeometry relative="1" as="geometry">
            <mxPoint x="395" y="241.5" as="sourcePoint" />
            <mxPoint x="305" y="241.5" as="targetPoint" />
            <Array as="points">
              <mxPoint x="355" y="241.5" />
            </Array>
          </mxGeometry>
        </mxCell>
        <mxCell id="7oue5vu6Khn2l55E_7nm-55" value="" style="strokeColor=#6881B3;edgeStyle=none;rounded=0;endArrow=none;html=1;strokeWidth=2;exitX=0.867;exitY=1;exitDx=0;exitDy=0;exitPerimeter=0;" edge="1" parent="1" source="7oue5vu6Khn2l55E_7nm-22">
          <mxGeometry relative="1" as="geometry">
            <mxPoint x="395" y="359.5" as="sourcePoint" />
            <mxPoint x="305" y="359.5" as="targetPoint" />
            <Array as="points">
              <mxPoint x="355" y="359.5" />
            </Array>
          </mxGeometry>
        </mxCell>
        <mxCell id="2" value="SMBus&lt;br&gt;" style="text;html=1;align=center;verticalAlign=middle;resizable=0;points=[];autosize=1;" vertex="1" parent="1">
          <mxGeometry x="150" y="208" width="50" height="20" as="geometry" />
        </mxCell>
        <mxCell id="7oue5vu6Khn2l55E_7nm-59" value="SMBus&lt;br&gt;" style="text;html=1;align=center;verticalAlign=middle;resizable=0;points=[];autosize=1;" vertex="1" parent="1">
          <mxGeometry x="150" y="94" width="50" height="20" as="geometry" />
        </mxCell>
        <mxCell id="7oue5vu6Khn2l55E_7nm-60" value="SMBus&lt;br&gt;" style="text;html=1;align=center;verticalAlign=middle;resizable=0;points=[];autosize=1;" vertex="1" parent="1">
          <mxGeometry x="155" y="330" width="50" height="20" as="geometry" />
        </mxCell>
        <mxCell id="7oue5vu6Khn2l55E_7nm-61" value="CAN_H, CAN_L, GND&lt;br&gt;" style="text;html=1;align=center;verticalAlign=middle;resizable=0;points=[];autosize=1;" vertex="1" parent="1">
          <mxGeometry x="320" y="100" width="140" height="20" as="geometry" />
        </mxCell>
        <mxCell id="7oue5vu6Khn2l55E_7nm-62" value="CAN_H, CAN_L, GND&lt;br&gt;" style="text;html=1;align=center;verticalAlign=middle;resizable=0;points=[];autosize=1;" vertex="1" parent="1">
          <mxGeometry x="320" y="220" width="140" height="20" as="geometry" />
        </mxCell>
        <mxCell id="7oue5vu6Khn2l55E_7nm-63" value="CAN_H, CAN_L, GND&lt;br&gt;" style="text;html=1;align=center;verticalAlign=middle;resizable=0;points=[];autosize=1;" vertex="1" parent="1">
          <mxGeometry x="320" y="340" width="140" height="20" as="geometry" />
        </mxCell>
      </root>
    </mxGraphModel>
  </diagram>
</mxfile>
